<?xml version="1.0" encoding="UTF-8"?>
<svg id="_Слой_1" data-name="Слой 1" xmlns="http://www.w3.org/2000/svg" xmlns:xlink="http://www.w3.org/1999/xlink" viewBox="0 0 419.53 265.76">
  <defs>
    <style>
      .cls-1 {
        fill: #232323;
      }

      .cls-2 {
        fill: url(#_Безымянный_градиент_317);
      }

      .cls-3 {
        fill: url(#_Безымянный_градиент_13);
      }

      .cls-4 {
        fill: url(#_Безымянный_градиент_15);
      }

      .cls-5 {
        fill: #353535;
      }

      .cls-6 {
        fill: #999;
      }
    </style>
    <linearGradient id="_Безымянный_градиент_317" data-name="Безымянный градиент 317" x1="98.71" y1="125.91" x2="320.82" y2="125.91" gradientUnits="userSpaceOnUse">
      <stop offset=".18" stop-color="#da958e"/>
      <stop offset=".34" stop-color="#fde7e0"/>
      <stop offset=".41" stop-color="#ecc1ba"/>
      <stop offset=".5" stop-color="#da958e"/>
      <stop offset=".9" stop-color="#f1d0c7"/>
      <stop offset="1" stop-color="#f7e0d7"/>
    </linearGradient>
    <linearGradient id="_Безымянный_градиент_15" data-name="Безымянный градиент 15" x1="158.58" y1="185.81" x2="260.95" y2="185.81" gradientUnits="userSpaceOnUse">
      <stop offset="0" stop-color="#fde7e0"/>
      <stop offset=".12" stop-color="#ecc1ba"/>
      <stop offset=".27" stop-color="#da958e"/>
      <stop offset="1" stop-color="#eac3bf"/>
    </linearGradient>
    <linearGradient id="_Безымянный_градиент_13" data-name="Безымянный градиент 13" x1="361.02" y1="34.04" x2="396.92" y2="34.04" gradientUnits="userSpaceOnUse">
      <stop offset="0" stop-color="#f7e0d7"/>
      <stop offset=".63" stop-color="#da958e"/>
      <stop offset="1" stop-color="#da958e"/>
    </linearGradient>
  </defs>
  <rect class="cls-1" x="-.12" width="419.77" height="265.76" rx="25.85" ry="25.85"/>
  <g id="id2WLz.tif">
    <path class="cls-5" d="M182.73,47.05c-.36.58-1.14-.52-1.48-.73-.46-.28-3.17-1.76-2.79-.35.13.45,2.33,1.69,2.82,2.09,2.2,1.79,5.53,5.24,6.32,8,.57,1.98.1,3.77,1.16,5.71,2.24,4.12,4.89,5.3,5.57,10.71.29,2.35.61,5.31.78,7.65.05.66.08,4.6-.2,4.8l-.88-.59c-.79-.17-.44,2.81-.49,3.43-.16,2.05-.35,4.87-.84,6.81-.94,3.72-3.15,5.9-3.08,10.05.15,8.93,6.75,14.44,15.01,15.96,4.94.91,10.13,1.36,15.09,1.58,17.35.75,32.1,1.62,49.16,5.15,6.24,1.29,13.19,2.38,18.91,5.41,10.01,5.3,13.24,11.05,26.19,7.04,8.51-2.64,12.14-6.92,8.59-15.93-5.76-14.6-24.76-15.15-37.89-12.98-8.14,1.35-26.57,7.83-31.64-1.61-3.52-6.55,2.97-13.81,8.53-16.59,3.36-1.68,6.81-1.49,10.47-1.24l.32.27-.57.76c.12.68,2.23.87,2.82.91,3.08.22,6.97.09,9.9-.9.68-.23,3.25-1.66,3.44-1.65.25,0,.27.22.1.49-1.07,1.64-4.12,2.56-5.86,3.26l-.03.56,2.36.1c.35.2-.13.58-.3.69-.96.62-2.7.93-3.82,1.18.13,1.21,1.78.54,2.36.87.26.14.06.55-.06.65-.16.15-2.1.77-2.42.81-.85.11-4.2-.68-3.04.91.34.47,1.81.55,1.38,1.25-.07.11-2.32.41-2.65.41-4.11.02-8.45-3.11-12.93-3.34-7.22-.37-11.81,6.08-4.78,10.86,5.96,4.05,18.37-.52,25.2-1.62,15.97-2.57,33.82-1.63,44.2,12.43,7.59,10.28.87,23.25-9.71,27.94-3.03,1.34-10.54,3.32-13.73,2.95-1.33-.16-1.57-1.44-2.55-2.16-.15-.03-.12.19-.1.3.11.53,1.48,2.45,1.88,3.02,5.19,7.27,13.21,14.35,16.45,22.76.27.71,1.36,3.87,1.25,4.37-.22,1.02-1.87-.34-1.54.43.26.6,4.7,4.08,5.54,4.66,3.86,2.66,11.14,5.88,15.68,7.07,1.88.49,3.76.53,5.64,1.23,2.94,1.09,4.07,2.06,4.32,5.29.28,3.59-.84,6.99-.58,10.58.29,4,1.91,7.85,2.53,11.78.53,3.34,1.03,9.44.59,12.71-.37,2.72-5.05,5.56-6.85,7.66-1.09,1.27-1.83,3.41-3.81,3.44-7.46-.62-16.23.81-23.54,0-4.2-.47-2.57-6.75-.59-9.02,3.46-3.95,7.9-2.83,12.5-3.77,2.91-.6,3.48-1.09,4.66-3.77,2.59-5.9,4.18-11.91.48-17.73-4.13-6.48-11.25-8.31-18.61-7.86-1.96.12-3.92.67-5.88.79-14.05.85-27.5-7.63-35.57-18.57-2.77-3.76-4.92-7.91-7.52-11.7-.31-.45-.76-1.02-1.25-1.3-.02.74.56,1.93.91,2.62,1.75,3.46,4.31,7.54,6.48,10.77.4.6,2.26,2.71,2.33,3.18.12.82-1.13,2.75-1.47,3.62-2.53,6.45-4.5,13.77-1.62,20.43,1.17,2.71,2.98,4.33,2.45,7.65-.76,4.81-11.29,10.23-15.23,12.81-2.36,1.54-4.59,3.27-6.93,4.83s-2.77,1.96-5.72,2.12c-4.2.23-10.15.27-14.33,0-1.27-.08-2.34,0-2.93-1.18-1.11-2.19-.18-4.97,1.28-6.76,3.27-4,9.04-2.28,13.33-3.72,2.24-.75,7.91-5.15,9.8-6.86,8.13-7.33,2.17-13.26-1.67-20.68-2.65-5.13-5.08-10.53-7.25-15.89-.48-1.2-1.99-4.55-2.07-5.59-.03-.37-.04-.72.11-1.07.34-.81,3.87-1.92,4.84-2.22,1.85-.58,5.14-.97,6.63-1.61.23-.1.44-.18.59-.39-.48-.7-1.47-.52-2.25-.49-5.57.26-13.02,2.86-18.01,5.32-11.89,5.85-18.75,13.38-33.16,13.9-1.97.07-1.55-.67-1.48-2.46.06-1.41.56-3.19.57-4.54,0-.28-.04-.51-.21-.73-1.85-1.7-4.16-2.85-5.96-4.62-1.98-1.95-3.63-4.69-5.41-6.86l-.54.21c.73,4.11,3.55,8.28,6.64,11.05,2.14,1.92,2.74.97,2.55,4.5-.29,5.55-.75,9.26.65,14.85,1.24,4.96,5.48,13.68,4.16,18.38-.89,3.14-6.81,13.49-8.95,16.15-.92,1.14-1.31,1.21-2.8,1.32-8.82.63-18.37-.49-27.27,0l-1.37-.39c-.57-3.75,1.87-8.16,5.14-9.97,3.42-1.89,7.38-1.6,11.05-2.47,3.2-.76,3.98-2.22,4.99-5.21,1.29-3.85,1.2-5.38-1.76-8.24-2.54-2.45-5.89-4.57-8.63-6.86-8.47-7.09-18.77-18.37-22.8-28.76-.56-1.45-.9-3.53-1.47-4.8-.13-.3-.42-.61-.73-.74.41,7.85,3.61,15.78,8.15,22.14.45.64,3.36,3.42,2.44,4.05-.11.08-2.32.29-2.65.29-10.76,0-21.48-6.62-27.45-15.31l-.89-.18c1.21,3.6,3.62,7.2,6.17,10.01.87.96,2.24,1.94,3.05,2.83.9.99.76,1.61.45,2.8-.66,2.53-2.13,5.25-2.7,7.89-.21.44-.61.89-.98,1.17-2.14,1.64-6.27,3.44-8.79,4.94-9.94,5.93-20.17,11.75-26.37,21.86-.47.77-2.28,4.52-2.73,4.72-1.26.57-6.8.19-8.59.23-5.14.12-10.14.14-15.28,0-1.3-.03-6.77.33-7.38-.46-.74-.97.48-4.37,1.11-5.39,3.97-6.38,10.08-4.72,15.24-8.68,3.93-3.01,8.33-9.55,11.2-13.7,4.46-6.46,9.76-14.13,13.6-20.9,1.77-3.13,3.19-6.29,3.37-9.96.27-5.32-2.34-9.74-3.75-14.67-1.17-4.08-1.77-8.28-2.32-12.48-.32-.06-.42.07-.54.34-.22.5-.37,2.41-.44,3.09-.24,2.59.28,5.23,0,7.65-.03.29-.03.5-.31.67l-1.04-1.11c-3.51-6.87-6.35-14.53-7.63-22.17-1.2-7.18-1.41-13.01.59-20.09,2.72-9.58,10.14-15.99,16.02-23.58,2.53-3.27,5.15-6.58,3.57-11.02-.5-1.4-2.92-4.03-4.44-3.99-.45.01-.82.26-1.36.2-.6-.07-1.27-.74-1.94-.56-.29.08-1.32,1.17-1.72,1.43-1.91,1.23-4,1.81-6.23,1.15-2.03-.6-5.47-3.71-5.98-5.78-.61-2.51,1.45-5.03.96-7.43-.14-.67-1.24-3.52-1.6-4.08-1.04-1.6-3.32-2.01-3.59-4.06s.98-4.08.93-6.07c-.04-1.55-2.36-2.73-.91-5.06.47-.76,3.26-2.29,4.22-2.84,3.56-2.03,7.46-4.04,11.11-5.95,2.83-1.48,6.76-2.59,8.86-5.06,1.41-1.65,1.27-2.81,3.94-3.12,2.45-.28,4.95-.03,7.42-.82.86-.27,3.36-1.5,4.02-2.06,1.18-1-.08-2.76-.19-4.11-.18-2.29.75-5.92,2.45-7.55-.19,4.45,1.46,1.33,3.37.63,1.58-.58,3.88-.38,2.1,1.52l.23.38c1.71,0,3.52-1.53,5.25-1.34,2.79.31,4.13,1.39,6.45,2.38,2.32.99,3.94.56,6.26.99,1.72.32,6.83,1.71,8,2.79.59.55.9,1.3,1.69,1.84,2.56,1.74,6.98,2.76,9.87,4.44,3.41,1.98,5.78,4.63,7.55,8.14.42.84,1.58,3.25,1.05,4.1Z"/>
  </g>
  <path id="aqZUaI.tif" class="cls-2" d="M266.33,143.9c-3.16,2.68-5.97,6.1-9.6,8.22-7.29,4.27-14.61,2.96-14.14-6.76-5.09,4.42-10.77,10.51-18.29,8.34-3.81-1.1-4.69-4.04-5.26-7.6-4.97,4.51-11.64,10.39-18.94,7.88-6.3-2.16-3.42-9.31-1.76-13.85,1.73-4.74,5.77-11.44,6.74-16.02.18-.87.35-1.75,0-2.62-2.69-1.34-5.94,1.57-7.56,3.52-3.17,3.8-7.68,16.75-9.31,21.9-.73,2.31-1.44,4.45-1.55,6.89-5.37,2.39-12.76,1.33-11.92-6.02.46-4.09,4.38-13.18,5.94-17.56,4.51-12.65,9.59-25.11,14.25-37.69-.38-.45-9.77,4.82-10.41,5.48-1.14,1.18-1.5,4.31-3.81,6.2-3.68,3.03-9.48,1.45-6.74-3.42,1.97-3.52,4.74-4.5,5.13-9.55.6-7.67-6.4-11.68-10.59-4.69-4.99,8.32-.25,21.54,1.28,30.49,2.24,13.07,3.78,27.44-3.41,39.29-13.46,22.19-53.12,25.3-64.97.28-9.14-19.29,5.72-47.74,28.2-47.21,20.46.48,19.72,30.73,5.34,35.4-3.46,1.12-8.88.35-9.18-4.07-.22-3.22,2.56-2.44,4.65-3.38,6.35-2.83,10.02-22.63-2.38-19.98-20.78,4.43-24.75,52.41,7.05,49.22,18.95-1.9,22.22-22.93,20.83-38.29-1.12-12.34-5.88-24.95-1.94-37.16,5.91-18.35,30.94-18.55,31.01,2.49l11.29-5.97,1.81-4.62c6.06-.65,12.75.43,10.7,8.1-2.55,9.53-7.66,19.21-10.57,28.72l5.9-3.29c5.29-2.83,13.49-2.42,13.63,5.13.14,7.22-6.95,16.33-8.61,22.99-1.12,4.51,2.66,3.05,5.02,1.34,6.38-4.63,6.26-9.33,9.68-15.66,3.46-6.39,8.85-13.2,16.31-14.92,3.43-.79,7.85-.85,9.88,2.63,3.03,5.17-1.77,3.34-4.46,3.88-5.14,1.04-11.65,13.94-12.89,18.7-.48,1.83-1.05,4.27.32,5.77,2.66,1.89,7.03-2.69,8.61-4.57,5.99-7.12,7.31-17.08,12.21-23.78,1.44-1.97,5.83-2.29,8.13-1.98,6.24.83,2.53,4.1.95,7.73-2.33,5.35-4.99,11.54-6.83,17.03-4.08,12.17,5.03,3.73,8.56-.27,7.72-8.77,9.8-24.4,15.01-34.92l.25-1.4c-.81-.07-1.56-.33-2.38-.39-10.52-.73-25.93-.44-36.39.79-4.09.48-8.09,1.46-12.14,2.19-.59-.11-.84-2.78-.43-3.35,16.98-6.15,35.71-4.1,53.51-4.06.81-3.18,1.98-6.27,2.88-9.42.37-1.29,1.24-6.52,1.94-6.87,1.61-.79,6.91-.02,8.6.97,4.34,2.56,2.16,7.83,1.07,11.6-.3,1.03-2.02,4.54-1.22,5.05l12.67,1.29c1.13-8.49,14.17-7.18,12.65,1.18-.83,4.52-5.19,4.94-8.92,4.66-2.45-.18-17.74-3.03-18.54-2.51l-13.86,37.72-.11,3.63c3.27,1.18,6.97-3.16,8.97-5.44,5.32-6.08,6.65-11.63,10.16-18.48.46-.89,2.18-4.46,2.62-4.91,1.95-1.97,12.62-2.51,12.35.39-3.47,7.49-7.47,15.71-9.77,23.65-1.07,3.71-2.16,7.99-1.2,11.82-7.58,2.42-14.31-.8-12.15-9.54-4.7,4.36-10.69,11.01-17.8,10.23-1.52-.17-3.7-1.12-4.65-2.33-.23-.3-1.46-2.78-1.46-2.94v-5.32Z"/>
  <path class="cls-4" d="M224.09,184.01l1.16,2.87h-2.53l1.15-2.87h.22ZM235.93,183.46h-2.87v1.57h2.87c.55,0,.9-.29.9-.79s-.36-.78-.9-.78ZM260.95,180.43v10.76c0,2.78-2.27,5.05-5.05,5.05h-92.26c-2.78,0-5.05-2.27-5.05-5.05v-10.76c0-2.78,2.27-5.05,5.05-5.05h92.26c2.78,0,5.05,2.27,5.05,5.05ZM179.26,185.53h-4.61v2h1.51c-.49.59-1.26.9-2.21.9-1.67,0-2.77-.98-2.77-2.63s1.12-2.6,2.81-2.61c1.24,0,2.14.57,2.5,1.58h2.53v-.6c-.65-2.02-2.64-3.23-5.01-3.25-3.06,0-5.31,1.9-5.31,4.88s2.1,4.9,4.95,4.9c1.31,0,2.47-.45,3.32-1.25v1.08h2.3v-5ZM183.97,181.2h-2.44v9.33h2.44v-9.33ZM193.63,181.2h-7.18v9.33h2.44v-3.5h4.55v-2.12h-4.55v-1.58h4.74v-2.12ZM203.32,181.2h-8.76v2.12h3.16v7.21h2.44v-7.21h3.16v-2.12ZM217.96,184.17c-.65-2.04-2.64-3.25-5.03-3.25-2.97,0-5.15,1.9-5.15,4.88s2.18,4.9,5.15,4.9c2.51,0,4.48-1.44,5.03-3.25v-.6h-2.51c-.36,1.01-1.28,1.58-2.51,1.58-1.61,0-2.67-.98-2.67-2.63s1.06-2.61,2.67-2.61c1.24,0,2.14.57,2.5,1.58h2.53v-.6ZM229.25,190l-3.82-8.8h-2.9l-3.75,8.8v.53h2.46l.62-1.52h4.25l.62,1.52h2.53v-.53ZM239.65,190l-2.28-3.1v-.09c1.15-.42,1.91-1.39,1.91-2.7,0-1.79-1.42-2.91-3.35-2.91h-5.31v9.33h2.44v-3.23h1.67l2.24,3.23h2.69v-.53ZM250.83,185.85c0-2.91-2.23-4.65-5.13-4.65h-4.22v9.33h4.22c2.9,0,5.13-1.77,5.13-4.68ZM245.71,183.32h-1.78v5.08h1.78c1.52,0,2.64-.92,2.64-2.56s-1.12-2.53-2.64-2.53Z"/>
  <g>
    <path class="cls-6" d="M198.4,213.19h-.29l-3.56,8.11h-2.85l-3.62-8.11h-.29v8.11h-3.52v-13.44h4.9l3.76,8.48h.35l3.78-8.48h4.84v13.44h-3.52v-8.11Z"/>
    <path class="cls-6" d="M209.28,207.86h4.18l5.5,12.68v.77h-3.64l-.89-2.19h-6.12l-.89,2.19h-3.54v-.77l5.4-12.68ZM209.55,216.05h3.64l-1.68-4.14h-.31l-1.65,4.14Z"/>
    <path class="cls-6" d="M224.66,212.22h-.23v9.08h-3.52v-13.44h4.98l5.6,9.08h.23v-9.08h3.52v13.44h-4.96l-5.63-9.08Z"/>
  </g>
  <path class="cls-3" d="M370.16,40.81c0,2.06-.39,3.59-1.17,4.59-.78.99-1.89,1.49-3.35,1.49-1.53,0-2.68-.52-3.46-1.57s-1.17-2.57-1.17-4.59v-13.38c0-2.01.39-3.54,1.17-4.59s1.93-1.57,3.46-1.57,2.57.5,3.35,1.49c.78.99,1.17,2.52,1.17,4.59v13.53ZM367.29,27.24c0-2.27-.56-3.4-1.68-3.4s-1.72,1.15-1.72,3.44v13.53c0,2.29.57,3.44,1.72,3.44s1.68-1.13,1.68-3.4v-13.61ZM380.75,40.81c0,2.06-.39,3.59-1.17,4.59-.78.99-1.89,1.49-3.35,1.49-1.53,0-2.68-.52-3.46-1.57s-1.17-2.57-1.17-4.59v-13.38c0-2.01.39-3.54,1.17-4.59s1.93-1.57,3.46-1.57,2.57.5,3.35,1.49c.78.99,1.17,2.52,1.17,4.59v13.53ZM377.88,27.24c0-2.27-.56-3.4-1.68-3.4s-1.72,1.15-1.72,3.44v13.53c0,2.29.57,3.44,1.72,3.44s1.68-1.13,1.68-3.4v-13.61ZM391.34,40.81c0,2.06-.39,3.59-1.17,4.59-.78.99-1.89,1.49-3.35,1.49-1.53,0-2.68-.52-3.46-1.57s-1.17-2.57-1.17-4.59v-13.38c0-2.01.39-3.54,1.17-4.59s1.93-1.57,3.46-1.57,2.57.5,3.35,1.49c.78.99,1.17,2.52,1.17,4.59v13.53ZM388.47,27.24c0-2.27-.56-3.4-1.68-3.4s-1.72,1.15-1.72,3.44v13.53c0,2.29.57,3.44,1.72,3.44s1.68-1.13,1.68-3.4v-13.61ZM394.17,46.74v-21.22h-1.91v-2.29c.84,0,1.41-.15,1.7-.44s.48-.77.55-1.43h2.41v25.39h-2.75Z"/>
</svg>