<?xml version="1.0" encoding="UTF-8"?>
<svg id="_Слой_1" data-name="Слой 1" xmlns="http://www.w3.org/2000/svg" viewBox="0 0 32 32">
  <defs>
    <style>
      .cls-1 {
        fill: #da958e;
      }

      .cls-2 {
        fill: #fde7e0;
      }
    </style>
  </defs>
  <circle class="cls-1" cx="16" cy="16" r="16"/>
  <path class="cls-2" d="M21.86,7.35c.92-1.54,2.46-.66,2.33,1.03-.09,1.11-.69,1.33-1.13,2.1-.18.33-.19.59-.09.77.2.36,1.06.28,1.57-.02,1.04-.6.95-2.23.94-2.33,0-.42-.05-.81-.14-1.16-.86-3.43-5.5-3.05-6.68.61-.86,2.68.18,5.46.43,8.17.31,3.38-.41,8-4.58,8.42-6.99.7-6.12-9.85-1.55-10.82,2.73-.58,1.92,3.77.52,4.39-.46.21-1.07.03-1.02.74.07.97,1.26,1.14,2.02.89,3.16-1.03,3.32-7.68-1.17-7.78-4.94-.12-8.21,6.14-6.2,10.38,2.61,5.5,11.32,4.82,14.28-.06,1.58-2.61,1.24-5.76.75-8.64-.34-1.97-1.38-4.87-.28-6.7Z"/>
</svg>